<svg xmlns="http://www.w3.org/2000/svg" >
<defs>
<symbol id="facebook" width="30" height="30">
  <path fill="none" d="M-1809-146v30h-30v-30h30Z"/>
  <path fill="inherit" fill-rule="evenodd" d="M17.069 25h-3.88v-9.376H11.25v-3.23h1.939v-1.94c0-2.636 1.094-4.204 4.204-4.204h2.59v3.232h-1.619c-1.21 0-1.29.451-1.29 1.294l-.006 1.617H20l-.343 3.23h-2.59V25h.002Z"/>
</symbol>
<symbol id="twitter" width="30" height="30">
   <path fill="none" d="M-1809-146v30h-30v-30h30Z"/>
   <path fill-rule="evenodd" d="M25.65 8.094a8.811 8.811 0 0 1-1.517.503 4.642 4.642 0 0 0 1.249-1.955c.07-.214-.167-.399-.363-.285a8.834 8.834 0 0 1-2.32.943.62.62 0 0 1-.55-.135A4.789 4.789 0 0 0 19.01 6c-.501 0-1.007.077-1.503.228-1.538.47-2.725 1.717-3.097 3.257a4.897 4.897 0 0 0-.112 1.718.165.165 0 0 1-.043.13.177.177 0 0 1-.148.058A12.498 12.498 0 0 1 5.56 6.899a.25.25 0 0 0-.406.031c-.42.71-.642 1.52-.642 2.346 0 1.264.516 2.456 1.413 3.325a4.295 4.295 0 0 1-1.081-.412.248.248 0 0 0-.369.21c-.023 1.88 1.095 3.551 2.77 4.304a4.271 4.271 0 0 1-.9-.074.246.246 0 0 0-.283.314c.544 1.67 2.006 2.901 3.755 3.18a8.856 8.856 0 0 1-4.902 1.465h-.548a.362.362 0 0 0-.355.269.367.367 0 0 0 .18.408A13.185 13.185 0 0 0 10.731 24c2.011 0 3.892-.392 5.59-1.166a12.327 12.327 0 0 0 4.091-3.015 13.173 13.173 0 0 0 2.505-4.126c.556-1.463.85-3.025.85-4.516v-.07c0-.24.11-.465.303-.618a9.278 9.278 0 0 0 1.886-2.037c.138-.203-.08-.457-.307-.358Z"/>
</symbol>
<symbol id="instagram" width="30" height="30">
   <path fill="none" d="M-1809-146v30h-30v-30h30Z"/>
   <path fill-rule="evenodd" d="M15.001 3c-3.259 0-3.668.014-4.948.072-1.278.059-2.15.261-2.913.558a5.876 5.876 0 0 0-2.125 1.384A5.89 5.89 0 0 0 3.63 7.139c-.298.763-.5 1.636-.558 2.913C3.015 11.332 3 11.74 3 15c0 3.259.014 3.667.072 4.947.06 1.277.261 2.15.558 2.912a5.88 5.88 0 0 0 1.384 2.126 5.876 5.876 0 0 0 2.125 1.385c.763.297 1.636.499 2.913.557 1.28.059 1.689.073 4.947.073 3.26 0 3.667-.014 4.947-.073 1.278-.058 2.151-.26 2.914-.557a5.87 5.87 0 0 0 2.125-1.385 5.888 5.888 0 0 0 1.385-2.125c.295-.764.497-1.636.557-2.913.058-1.28.073-1.688.073-4.947 0-3.259-.015-3.668-.073-4.948-.06-1.277-.262-2.15-.557-2.912a5.887 5.887 0 0 0-1.385-2.126A5.865 5.865 0 0 0 22.86 3.63c-.765-.297-1.638-.499-2.915-.558C18.665 3.014 18.257 3 14.997 3h.004Zm-1.076 2.162H15c3.204 0 3.584.012 4.849.07 1.17.053 1.805.248 2.228.413.56.217.96.477 1.379.897.42.42.68.82.898 1.38.164.423.36 1.058.413 2.228.058 1.265.07 1.645.07 4.847 0 3.203-.012 3.583-.07 4.848-.053 1.17-.249 1.805-.413 2.227-.218.56-.478.959-.898 1.379-.42.42-.819.68-1.379.897-.422.165-1.058.36-2.228.414-1.265.057-1.645.07-4.849.07s-3.584-.013-4.849-.07c-1.17-.054-1.805-.25-2.228-.414a3.717 3.717 0 0 1-1.38-.897 3.72 3.72 0 0 1-.898-1.38c-.165-.422-.36-1.057-.413-2.227-.058-1.265-.07-1.645-.07-4.85 0-3.204.012-3.582.07-4.847.053-1.17.248-1.805.413-2.228.217-.56.478-.96.898-1.38.42-.42.82-.68 1.38-.898.423-.165 1.058-.36 2.228-.414 1.107-.05 1.536-.065 3.773-.067v.002Zm7.482 1.993a1.44 1.44 0 1 0 0 2.88 1.44 1.44 0 0 0 0-2.88ZM15 8.838a6.163 6.163 0 1 0 .001 12.325 6.163 6.163 0 0 0-.001-12.325Zm0 2.162a4 4 0 1 1 0 8 4 4 0 0 1 0-8Z"/>
</symbol>
</svg>